<?xml version="1.0" encoding="UTF-8" standalone="no"?>
<!DOCTYPE svg PUBLIC "-//W3C//DTD SVG 1.1//EN" "http://www.w3.org/Graphics/SVG/1.1/DTD/svg11.dtd">
<svg width="100%" height="100%" viewBox="0 0 650 168" version="1.1" xmlns="http://www.w3.org/2000/svg" xmlns:xlink="http://www.w3.org/1999/xlink" xml:space="preserve" xmlns:serif="http://www.serif.com/" style="fill-rule:evenodd;clip-rule:evenodd;stroke-linejoin:round;stroke-miterlimit:2;">
    <g>
        <clipPath id="_clip1">
            <rect x="0" y="0" width="650" height="167.66"/>
        </clipPath>
        <g clip-path="url(#_clip1)">
            <path d="M272.16,146.56L271.58,146.56C271.676,146.551 271.773,146.547 271.87,146.55C271.97,146.547 272.07,146.551 272.17,146.56" style="fill:rgb(19,13,105);fill-rule:nonzero;"/>
            <path d="M117.78,110.5L96.4,110.51C96.4,110.51 96.44,80.32 96.34,68.89C96.368,66.56 95.978,64.243 95.19,62.05C92.96,56.39 87.06,53.65 80.49,54.89C74.06,56.1 69.79,60.81 69.63,67.36C69.45,74.68 69.55,110.3 69.55,110.3L48.14,110.3C48.14,110.3 48.17,81.93 48.11,69.09C48.144,67.222 47.926,65.359 47.46,63.55C45.78,57.57 40.66,54.25 34.04,54.66C27.45,55.06 22.52,59.3 21.5,65.53C21.264,67.069 21.154,68.624 21.17,70.18C21.15,82.63 21.16,110.38 21.16,110.38L0,110.38L0,35.88L18.71,35.88L18.71,35.85L21.43,35.85C21.75,38.23 21.98,40.26 22.14,41.93C27.992,36.335 35.943,33.464 44.02,34.03C52.8,34.43 59.97,37.91 65.24,45.43C65.87,44.74 66.37,44.19 66.89,43.65C75.79,34.09 91.23,31.08 103.09,36.64C111.59,40.61 116.05,47.53 117.37,56.6C117.676,58.997 117.81,61.414 117.77,63.83C117.81,77.59 117.79,110.51 117.79,110.51" style="fill:rgb(93,219,147);fill-rule:nonzero;"/>
            <path d="M258.18,112.16L258.18,112.17L258.13,112.17L257.12,112.16L257.11,112.16L256.79,112.14L257.78,112.16L258.18,112.16Z" style="fill:rgb(19,13,105);fill-rule:nonzero;"/>
            <path d="M258.29,112.16L257.78,112.16L258.29,112.16Z" style="fill:rgb(19,13,105);fill-rule:nonzero;"/>
            <path d="M257.78,112.16L257.11,112.16L256.79,112.14L257.78,112.16" style="fill:rgb(19,13,105);fill-rule:nonzero;"/>
            <path d="M428.93,34.19C413.11,35.6 401.2,43.39 395.55,58.49C389.69,74.15 392.56,88.69 404.56,100.65C418.04,114.08 441.35,116.06 458.36,105.75C461.998,103.609 465.253,100.874 467.99,97.66L453.87,85.42C441.69,98.61 419.95,95.22 416.07,80.13L419.07,80.13L469.12,80.14C470.44,80.14 471.5,80.21 471.65,78.34C472.28,70.5 471.43,62.94 468.02,55.78C460.95,40.93 446.35,32.62 428.92,34.18M416.14,65.8C416.25,59.66 423.34,53.2 430.64,52.51C439.192,51.626 447.124,57.4 448.91,65.81L416.14,65.8Z" style="fill:rgb(93,219,147);fill-rule:nonzero;"/>
            <path d="M603.38,87.06C596.01,80.49 595.28,68.06 601.87,60.66C605.041,57.021 609.586,54.861 614.41,54.7C621.9,54.3 627.63,57.5 631.67,63.8L650,52.69C642.35,38.89 623.73,30.25 603.7,35.57C585.73,40.34 574.29,56.91 575.53,76.5C576.7,94.8 590.85,109.42 609.9,111.89C628.71,114.32 644.46,104.59 649.86,93.44L631.8,82.47C622.74,92.7 611.63,94.43 603.38,87.07" style="fill:rgb(93,219,147);fill-rule:nonzero;"/>
            <path d="M523.42,90.83C521.837,91.237 520.214,91.461 518.58,91.5C512.08,91.54 509.15,88.6 509.11,82.1C509.07,74.23 509.11,66.37 509.09,58.5L509.09,55.17L528.15,55.17L528.15,35.65L508.99,35.65L508.99,17.45L487.59,17.45L487.59,35.7L476.46,35.7L476.46,55.2L487.68,55.2C487.68,55.2 487.67,57.46 487.68,58.46C487.79,69.27 487.58,80.11 488.14,90.9C488.54,98.48 491.91,105.02 498.92,108.7C508.09,113.5 517.62,113.43 527.15,109.51C527.719,109.2 528.111,108.641 528.21,108C528.29,101.8 528.26,95.59 528.26,89.17C526.48,89.79 524.99,90.47 523.43,90.84" style="fill:rgb(93,219,147);fill-rule:nonzero;"/>
            <path d="M552.1,0C551.978,-0.003 551.856,-0.005 551.734,-0.005C544.724,-0.005 538.954,5.764 538.954,12.775C538.954,12.9 538.956,13.025 538.96,13.15C538.993,20.371 544.944,26.295 552.165,26.295C559.409,26.295 565.37,20.334 565.37,13.09C565.37,13.07 565.37,13.05 565.37,13.03C565.37,5.58 559.7,0 552.1,0" style="fill:rgb(51,15,183);fill-rule:nonzero;"/>
            <path d="M462.19,6.51L435.27,6.51L421.04,27.98L443.41,27.98C449.687,20.835 455.947,13.675 462.19,6.5" style="fill:rgb(93,219,147);fill-rule:nonzero;"/>
            <rect x="541.59" y="35.67" width="21.1" height="74.73" style="fill:rgb(93,219,147);fill-rule:nonzero;"/>
            <path d="M372.54,40.79C362.64,32.69 351.47,32.15 339.96,36.67C336.93,37.87 334.24,39.95 331.29,41.86C331.13,40.2 330.9,38.2 330.59,35.85L309.18,35.85L309.18,110.37L330.34,110.37C330.34,110.37 330.33,83.45 330.37,71.31C330.359,69.445 330.523,67.584 330.86,65.75C332.1,59.34 337.78,54.92 344.94,54.65C352.24,54.38 357.74,58.05 359.48,64.59C359.98,66.709 360.212,68.883 360.17,71.06C360.23,83.2 360.2,110.31 360.2,110.31L381.47,110.31C381.47,94.31 381.57,74.02 381.33,59.47C381.371,52.238 378.132,45.364 372.53,40.79" style="fill:rgb(93,219,147);fill-rule:nonzero;"/>
            <path d="M272.16,146.56L271.58,146.56C271.676,146.551 271.773,146.547 271.87,146.55C271.97,146.547 272.07,146.551 272.17,146.56" style="fill:rgb(19,13,105);fill-rule:nonzero;"/>
            <path d="M271.87,146.55C271.77,146.547 271.67,146.55 271.57,146.56L272.17,146.56C272.07,146.551 271.97,146.547 271.87,146.55" style="fill:rgb(19,13,105);fill-rule:nonzero;"/>
            <path d="M305.76,158.04C305.765,161.296 305.3,164.536 304.38,167.66L283.26,159.51C283.326,159.026 283.359,158.538 283.36,158.05C283.365,154.73 281.926,151.567 279.42,149.39C278.725,148.779 277.955,148.259 277.13,147.84C275.594,147.039 273.892,146.604 272.16,146.57C272.06,146.557 271.96,146.551 271.86,146.55C271.766,146.551 271.673,146.558 271.58,146.57L243.85,146.57C228.848,146.369 216.614,133.974 216.61,118.97C216.61,118.68 216.61,118.39 216.63,118.1L216.63,118.02L216.65,117.59C216.95,109.22 220.12,103.29 224,98.16C219.082,93.649 214.424,88.861 210.05,83.82L209.47,83.18C209.27,82.98 209.09,82.75 208.89,82.54L208.15,81.72L207.72,81.25L206.53,79.95L205.93,79.31C205.13,78.44 204.31,77.58 203.49,76.72L202.88,76.07L201.63,74.79C201.43,74.59 201.23,74.37 201,74.16L200.08,73.23L199.75,72.89L199.11,72.27L197.84,71.03L196.35,69.63L195.58,68.93C195.56,68.91 195.55,68.88 195.53,68.88C194.79,68.18 194.02,67.51 193.26,66.85C192.94,66.59 192.64,66.32 192.33,66.05C192.298,66.025 192.268,65.998 192.24,65.97C191.88,65.67 191.53,65.37 191.16,65.08L190.11,64.24C189.41,63.68 188.7,63.14 187.98,62.62L187.31,62.13C186.399,61.464 185.465,60.83 184.51,60.23L183.94,59.88L183.27,59.48C182.97,59.29 182.67,59.13 182.39,58.96C182.23,58.86 182.07,58.78 181.92,58.7L181.59,58.51L181.05,58.23L180.52,57.95C179.991,57.672 179.45,57.415 178.9,57.18L177.82,56.71L176.87,56.34C176.838,56.331 176.808,56.318 176.78,56.3L176.71,56.28L176.21,56.11C175.86,55.98 175.49,55.86 175.13,55.75C175.112,55.747 175.095,55.74 175.08,55.73L175.04,55.71L174.46,55.55L174.06,55.45C173.85,55.38 173.63,55.33 173.41,55.28L172.77,55.13L172.63,55.1C172.58,55.08 172.57,55.1 172.54,55.09L172.14,55.02C172,55 171.88,54.96 171.74,54.95C171.48,54.91 171.21,54.86 170.94,54.84C170.575,54.789 170.208,54.756 169.84,54.74C169.664,54.72 169.487,54.707 169.31,54.7C168.473,54.661 167.635,54.674 166.8,54.74L166.25,54.8L166.25,54.78C157.11,55.88 150.45,63.4 150.45,73.09C150.45,83.66 158.25,91.55 168.66,91.54C179.16,91.5 186.86,83.7 186.87,73.11C186.879,71.582 186.711,70.059 186.37,68.57L186.88,68.98C191.84,73.08 196.529,77.496 200.92,82.2C202.55,83.9 204.2,85.7 205.88,87.57C205.325,89.365 204.623,91.111 203.78,92.79C196.69,106.87 181.48,112.23 168.58,112.23C151.98,112.23 128.38,101.64 128.38,73.73C128.38,62.83 132.04,51.85 139.72,44.13C146.711,37.136 156.367,33.451 166.24,34.01L166.35,34.01C173.395,34.028 180.369,35.421 186.88,38.11L188.08,38.61L188.08,28.1L208.48,28.1L208.48,51.88C212.532,55.431 216.394,59.193 220.05,63.15C222.09,65.32 224.03,67.47 225.89,69.54C236.99,81.87 247.19,91.21 258.93,91.21C270.67,91.21 276.47,82.72 276.47,72.87C276.47,72.864 276.47,72.858 276.47,72.852C276.47,62.791 268.191,54.512 258.13,54.512C248.069,54.512 239.79,62.791 239.79,72.852C239.79,73.979 239.894,75.103 240.1,76.21C236.602,72.883 233.252,69.403 230.06,65.78C227.457,62.861 224.806,59.984 222.11,57.15C229.921,39.325 249.833,29.83 268.6,34.98C270.562,28.332 274.535,22.452 279.97,18.15L297.87,30.38C295.045,32.006 292.691,34.34 291.04,37.15C290.438,38.079 289.948,39.076 289.58,40.12C288.255,43.554 288.587,47.414 290.48,50.57L290.51,50.61C290.71,50.92 290.91,51.24 291.14,51.54C291.14,51.54 291.16,51.54 291.16,51.56C294.999,57.496 297.156,64.365 297.4,71.43C297.42,71.91 297.42,72.39 297.42,72.87C297.42,92.2 286.93,112.15 259.15,112.15L257.78,112.15C257.447,112.15 257.117,112.143 256.79,112.13L257.11,112.15L244.11,112.15C244.044,112.148 243.977,112.146 243.91,112.146C240.888,112.146 238.4,114.634 238.4,117.656C238.4,117.764 238.404,117.872 238.41,117.98C238.41,120.81 240.1,124.05 244.28,124.05C244.28,124.05 264.54,124.15 270.98,124.15C274.693,124.158 278.388,124.676 281.96,125.69C284.433,126.36 286.792,127.395 288.96,128.76C299.354,134.827 305.764,145.995 305.76,158.03" style="fill:rgb(93,219,147);fill-rule:nonzero;"/>
            <path d="M257.78,112.16L257.11,112.16L256.79,112.14L257.78,112.16" style="fill:rgb(19,13,105);fill-rule:nonzero;"/>
        </g>
    </g>
</svg>
