<svg viewBox="0 0 181 48" fill="none" class="h-8 origin-left transition duration-500 group-[.fixed-navbar-scrolled]:scale-90 lg:h-12 lg:group-[.fixed-navbar-scrolled]:scale-75"><title>Insiders.coop</title><g clip-path="url(#a)"><path fill="#18181B" d="M151.021 23.342c.553 2.646 1.698 4.438 3.836 4.438.884 0 1.916-.374 2.691-1.043l2.178 4.403c-1.773 1.303-3.506 2.127-6.162 2.127-6.345 0-8.226-6.75-8.597-9.476h-2.473v9.066h-6.528V6.741h11.915c5.609 0 8.67 4.065 8.67 8.803 0 3.769-2.064 6.715-5.535 7.798h.005Zm-3.911-4.514c1.772 0 2.878-1.378 2.878-3.205 0-1.828-1.106-3.285-2.878-3.285h-4.612v6.49h4.612ZM165.961 24.2c.628 2.352 2.178 3.62 4.647 3.62 1.916 0 3.54-.71 3.54-2.352 0-.858-.479-1.752-2.656-2.5l-2.879-1.044c-3.91-1.343-7.011-4.179-7.045-7.723 0-4.813 3.945-7.87 9.258-7.87 4.315 0 7.416 2.128 8.927 6.157l-5.239 2.126c-.884-2.201-2.251-2.835-3.653-2.835-1.551 0-2.84.634-2.84 2.127 0 .708.296 1.717 2.509 2.46l2.765.97c5.792 1.902 7.194 5.037 7.268 7.943 0 5.522-4.869 7.983-9.851 7.983-5.347 0-9.667-2.87-10.294-7.868l5.535-1.194h.008ZM136.628 45.318c.832 0 1.494.582 1.494 1.365 0 .784-.662 1.321-1.494 1.321-.831 0-1.463-.563-1.463-1.32 0-.758.618-1.366 1.463-1.366ZM144.375 37.529c1.607 0 2.67.564 3.702 1.422l-1.233 1.814c-.701-.651-1.506-.986-2.469-.986-1.837 0-2.983 1.321-2.983 2.985 0 1.665 1.146 2.986 2.983 2.986.963 0 1.764-.335 2.469-.986l1.233 1.814c-1.032.854-2.095 1.422-3.702 1.422-3.401 0-5.535-2.409-5.535-5.236 0-2.826 2.139-5.235 5.535-5.235ZM148.547 42.764c0-2.857 2.238-5.235 5.321-5.235 3.084 0 5.322 2.378 5.322 5.235 0 2.858-2.238 5.236-5.322 5.236-3.083 0-5.321-2.378-5.321-5.236Zm8.1 0c0-1.681-1.176-2.959-2.783-2.959s-2.769 1.278-2.769 2.96 1.162 2.959 2.769 2.959c1.607 0 2.783-1.277 2.783-2.96ZM160.161 42.764c0-2.857 2.238-5.235 5.321-5.235 3.084 0 5.322 2.378 5.322 5.235 0 2.858-2.238 5.236-5.322 5.236-3.083 0-5.321-2.378-5.321-5.236Zm8.1 0c0-1.681-1.176-2.959-2.783-2.959s-2.769 1.278-2.769 2.96 1.162 2.959 2.769 2.959c1.607 0 2.783-1.277 2.783-2.96ZM172.35 47.842v-10.15h4.603c2.181 0 3.37 1.594 3.37 3.434 0 1.841-1.206 3.338-3.37 3.338h-2.064v3.378h-2.539Zm4.302-5.412c.675 0 1.119-.581 1.119-1.29 0-.753-.444-1.334-1.119-1.334h-1.763v2.624h1.763ZM6.528 32.853H0V6.74h6.528v26.112ZM18.52 18.344v14.509h-6.527V6.74h5.056l10.255 14.324V6.741h6.528v26.112h-5.017L18.52 18.344ZM43.011 24.2c.627 2.352 2.178 3.62 4.647 3.62 1.92 0 3.54-.71 3.54-2.352 0-.858-.479-1.752-2.656-2.5l-2.879-1.044c-3.91-1.343-7.01-4.179-7.046-7.723 0-4.813 3.946-7.87 9.258-7.87 4.316 0 7.416 2.128 8.928 6.157l-5.24 2.126c-.883-2.201-2.25-2.835-3.653-2.835-1.55 0-2.839.634-2.839 2.127 0 .708.296 1.717 2.508 2.46l2.765.97c5.792 1.902 7.194 5.037 7.268 7.943 0 5.522-4.868 7.983-9.85 7.983-5.347 0-9.667-2.87-10.294-7.868l5.534-1.194h.01ZM68.133 32.853h-6.527V6.74h6.527v26.112ZM73.594 32.853V6.74h11.179c7.416 0 12.985 5.857 12.985 13.056 0 7.2-5.57 13.056-12.985 13.056H73.594Zm6.528-5.447h3.431c4.869 0 7.639-3.28 7.639-7.609 0-4.328-2.766-7.609-7.639-7.609h-3.431v15.218Z"></path><path fill="#04B0B9" d="M101.294 0v39.4h31.097V0H101.294Zm24.465 32.694h-17.832V6.706h17.832v25.988Z"></path><path fill="#18181B" d="M132.391 12.008h-17.71v5.235h17.71v-5.235ZM132.391 22.245h-17.71v5.236h17.71v-5.236Z"></path></g><defs><clipPath id="a"><path fill="#FFF" d="M0 0h180.571v48H0z"></path></clipPath></defs></svg>
