<?xml version="1.0" encoding="UTF-8"?>
<svg id="Calque_1" data-name="Calque 1" xmlns="http://www.w3.org/2000/svg" viewBox="0 0 898.37 281.77">
  <defs>
    <style>
      .cls-1, .cls-2 {
        stroke-width: 0px;
      }

      .cls-2 {
        fill: #e85d05;
      }
    </style>
  </defs>
  <g id="Noir_Orange" data-name="Noir&amp;amp;Orange">
    <path class="cls-1" d="M52.31,133.95v53.07H17.62V32.98h54.36c38.81,0,58.22,16.37,58.22,49.09,0,15.47-5.57,27.98-16.7,37.54-11.14,9.56-26.01,14.34-44.63,14.34h-16.54ZM52.31,59.62v48.02h13.64c18.48,0,27.71-8.09,27.71-24.28s-9.24-23.74-27.71-23.74h-13.64Z"/>
    <path class="cls-1" d="M241.7,141.69h-71.76c1.14,15.97,11.21,23.96,30.19,23.96,12.1,0,22.74-2.86,31.9-8.59v24.49c-10.17,5.44-23.38,8.16-39.64,8.16-17.76,0-31.55-4.92-41.36-14.77-9.81-9.85-14.72-23.58-14.72-41.2s5.3-32.73,15.9-43.4c10.6-10.67,23.63-16.01,39.1-16.01s28.45,4.76,37.22,14.29c8.77,9.53,13.16,22.45,13.16,38.78v14.29ZM210.22,120.85c0-15.75-6.38-23.63-19.12-23.63-5.44,0-10.15,2.26-14.13,6.77s-6.39,10.13-7.25,16.87h40.5Z"/>
    <path class="cls-1" d="M333.65,107.64c-4.08-2.22-8.85-3.33-14.29-3.33-7.38,0-13.14,2.7-17.29,8.11-4.15,5.41-6.23,12.77-6.23,22.08v52.53h-33.95v-110h33.95v20.41h.43c5.37-14.89,15.04-22.34,29-22.34,3.58,0,6.37.43,8.38,1.29v31.26Z"/>
    <path class="cls-1" d="M367.49,59.62c-5.73,0-10.42-1.7-14.07-5.1-3.65-3.4-5.48-7.57-5.48-12.51s1.83-9.24,5.48-12.46,8.34-4.83,14.07-4.83,10.51,1.61,14.13,4.83c3.62,3.22,5.42,7.38,5.42,12.46s-1.81,9.38-5.42,12.68c-3.62,3.29-8.33,4.94-14.13,4.94ZM384.25,187.02h-33.95v-110h33.95v110Z"/>
    <path class="cls-2" d="M409.06,181.11v-34.38c6.23,5.23,13,9.15,20.3,11.76,7.3,2.62,14.68,3.92,22.13,3.92,4.37,0,8.18-.39,11.44-1.18,3.26-.79,5.98-1.88,8.16-3.28,2.18-1.4,3.81-3.04,4.89-4.94,1.07-1.9,1.61-3.96,1.61-6.18,0-3.01-.86-5.69-2.58-8.06s-4.06-4.55-7.04-6.55c-2.97-2-6.5-3.94-10.58-5.8-4.08-1.86-8.49-3.76-13.21-5.69-12.03-5.01-21-11.13-26.91-18.37-5.91-7.23-8.86-15.97-8.86-26.21,0-8.02,1.61-14.91,4.83-20.68,3.22-5.76,7.61-10.51,13.16-14.23,5.55-3.72,11.98-6.46,19.28-8.22,7.3-1.75,15.04-2.63,23.2-2.63s15.13.48,21.32,1.45c6.19.97,11.9,2.45,17.13,4.46v32.12c-2.58-1.79-5.39-3.37-8.43-4.73-3.04-1.36-6.18-2.49-9.4-3.38-3.22-.89-6.43-1.56-9.61-1.99-3.19-.43-6.21-.64-9.08-.64-3.94,0-7.52.38-10.74,1.13s-5.95,1.81-8.16,3.17c-2.22,1.36-3.94,2.99-5.16,4.89-1.22,1.9-1.83,4.03-1.83,6.39,0,2.58.68,4.89,2.04,6.93,1.36,2.04,3.29,3.97,5.8,5.8,2.5,1.83,5.55,3.62,9.13,5.37,3.58,1.76,7.63,3.56,12.14,5.42,6.16,2.58,11.69,5.32,16.6,8.22,4.9,2.9,9.11,6.18,12.62,9.83,3.51,3.65,6.19,7.83,8.06,12.51,1.86,4.69,2.79,10.15,2.79,16.38,0,8.59-1.63,15.81-4.89,21.65-3.26,5.84-7.68,10.56-13.27,14.18-5.59,3.62-12.08,6.21-19.5,7.79s-15.24,2.36-23.47,2.36-16.49-.72-24.12-2.15-14.23-3.58-19.82-6.45Z"/>
    <path class="cls-2" d="M619.5,183.05c-7.66,4.44-18.73,6.66-33.19,6.66-16.9,0-30.58-5.12-41.04-15.36-10.46-10.24-15.68-23.45-15.68-39.64,0-18.69,5.6-33.42,16.81-44.2,11.21-10.78,26.19-16.17,44.96-16.17,12.96,0,22.34,1.72,28.14,5.16v28.79c-7.09-5.3-15-7.95-23.74-7.95-9.74,0-17.46,2.85-23.15,8.54s-8.54,13.55-8.54,23.58,2.72,17.39,8.16,22.93c5.44,5.55,12.93,8.33,22.45,8.33,8.45,0,16.72-2.65,24.81-7.95v27.29Z"/>
    <path class="cls-2" d="M694.16,189.71c-18.33,0-32.75-5.14-43.24-15.42-10.49-10.28-15.74-24.22-15.74-41.84s5.44-32.42,16.33-42.7c10.88-10.27,25.6-15.41,44.15-15.41s32.58,5.14,42.97,15.41c10.38,10.28,15.58,23.87,15.58,40.77,0,18.26-5.35,32.69-16.06,43.29-10.71,10.6-25.37,15.9-43.99,15.9ZM695.02,100.33c-8.02,0-14.25,2.76-18.69,8.27-4.44,5.52-6.66,13.32-6.66,23.42,0,21.13,8.52,31.69,25.57,31.69s24.38-10.85,24.38-32.55c0-20.55-8.2-30.83-24.6-30.83Z"/>
    <path class="cls-2" d="M810.6,174.24h-.43v63.38h-33.95V77.02h33.95v16.54h.43c8.38-12.82,20.16-19.23,35.34-19.23,14.25,0,25.26,4.89,33.03,14.66,7.77,9.78,11.66,23.08,11.66,39.91,0,18.33-4.53,33.05-13.59,44.15-9.06,11.1-21.11,16.65-36.15,16.65-13.25,0-23.35-5.16-30.29-15.47ZM809.64,129.12v8.81c0,7.59,2,13.79,6.02,18.58,4.01,4.8,9.27,7.2,15.79,7.2,7.73,0,13.73-2.99,17.99-8.97,4.26-5.98,6.39-14.45,6.39-25.41,0-19.34-7.52-29-22.56-29-6.95,0-12.62,2.63-17.03,7.9s-6.61,12.23-6.61,20.89Z"/>
  </g>
</svg>