<?xml version="1.0" encoding="UTF-8"?>
<svg id="Calque_1" data-name="Calque 1" xmlns="http://www.w3.org/2000/svg" viewBox="0 0 408.19 147.4">
  <defs>
    <style>
      .cls-1 {
        fill: #132c2c;
        stroke-width: 0px;
      }
    </style>
  </defs>
  <g>
    <path class="cls-1" d="M185.31,75.22c0,2.8-.42,5.35-1.27,7.64-.85,2.29-2.02,4.25-3.51,5.87-1.5,1.62-3.3,2.86-5.4,3.73s-4.43,1.3-6.99,1.3c-3.04,0-5.65-.59-7.82-1.76-2.17-1.17-3.79-2.67-4.85-4.48l-.43,5.3h-6.88v-53.6h7.46v23.11c1.26-2.03,3.01-3.56,5.25-4.6,2.25-1.04,4.67-1.56,7.28-1.56s4.89.45,6.99,1.34,3.9,2.16,5.4,3.8c1.5,1.64,2.67,3.65,3.51,6.01.84,2.37,1.27,5,1.27,7.9ZM177.56,74.97c0-3.63-.98-6.51-2.93-8.65-1.96-2.13-4.55-3.2-7.79-3.2s-5.84,1.07-7.82,3.2c-1.98,2.13-2.97,5.01-2.97,8.65s.99,6.52,2.97,8.65c1.98,2.13,4.59,3.2,7.82,3.2s5.83-1.06,7.79-3.2c1.96-2.13,2.93-5.01,2.93-8.65Z"/>
    <path class="cls-1" d="M205.16,56.24c2.75,0,5.25.47,7.5,1.41,2.25.94,4.17,2.25,5.76,3.91,1.59,1.67,2.84,3.65,3.73,5.94.89,2.29,1.34,4.79,1.34,7.5s-.45,5.2-1.34,7.5c-.89,2.29-2.14,4.27-3.73,5.94-1.59,1.67-3.51,2.96-5.76,3.88-2.25.92-4.75,1.38-7.5,1.38s-5.25-.46-7.5-1.38c-2.25-.92-4.17-2.21-5.76-3.88s-2.84-3.65-3.73-5.94c-.89-2.29-1.34-4.79-1.34-7.5s.45-5.2,1.34-7.5c.89-2.29,2.14-4.27,3.73-5.94s3.51-2.97,5.76-3.91c2.25-.94,4.75-1.41,7.5-1.41ZM205.16,86.74c1.59,0,3.03-.29,4.31-.87,1.28-.58,2.39-1.4,3.33-2.46.94-1.06,1.67-2.31,2.17-3.75s.76-3.03.76-4.77-.25-3.31-.76-4.73-1.23-2.65-2.17-3.68c-.94-1.03-2.05-1.84-3.33-2.42-1.28-.58-2.72-.87-4.31-.87s-3.04.29-4.35.87c-1.3.58-2.42,1.38-3.33,2.42-.92,1.04-1.63,2.26-2.14,3.68-.51,1.42-.76,3-.76,4.73s.25,3.32.76,4.77c.51,1.44,1.22,2.7,2.14,3.75.92,1.06,2.03,1.88,3.33,2.46,1.3.58,2.75.87,4.35.87Z"/>
    <path class="cls-1" d="M239.06,87.53c1.83,0,3.34-.37,4.53-1.12,1.18-.75,1.78-1.92,1.78-3.51,0-2.17-1.4-3.57-4.2-4.2l-5.07-1.38c-6.62-1.83-9.92-5.24-9.92-10.21,0-1.59.3-3.05.91-4.38.6-1.33,1.46-2.47,2.58-3.44,1.11-.96,2.47-1.71,4.07-2.25,1.6-.53,3.39-.8,5.38-.8,3.53,0,6.51.79,8.93,2.35,2.42,1.57,3.88,3.8,4.36,6.7l-6.95,1.67c-.19-1.4-.86-2.5-1.99-3.3-1.13-.8-2.52-1.2-4.17-1.2s-3.05.41-4.09,1.23c-1.04.82-1.56,1.91-1.56,3.26,0,1.16.39,2.09,1.16,2.79.77.7,1.96,1.24,3.56,1.63l5.02,1.3c3.2.82,5.62,2.11,7.27,3.88,1.65,1.76,2.47,3.9,2.47,6.41,0,3.33-1.23,5.96-3.69,7.9-2.46,1.93-5.89,2.9-10.29,2.9-4.1,0-7.34-.89-9.71-2.68-2.37-1.79-3.77-4.15-4.2-7.1l6.95-1.23c.19,1.45.88,2.61,2.06,3.48,1.18.87,2.79,1.3,4.82,1.3Z"/>
    <path class="cls-1" d="M272.82,56.24c4.06,0,7.52.97,10.39,2.9,2.87,1.93,4.84,4.56,5.9,7.9l-6.66,2.68c-.68-2.03-1.88-3.62-3.62-4.78-1.74-1.16-3.72-1.74-5.94-1.74-3.19,0-5.72,1.07-7.61,3.2-1.88,2.13-2.83,5.01-2.83,8.65s.94,6.5,2.83,8.61c1.88,2.11,4.42,3.16,7.61,3.16,2.22,0,4.2-.55,5.94-1.67,1.74-1.11,2.97-2.68,3.69-4.71l6.59,2.54c-1.21,3.37-3.3,6.01-6.27,7.93-2.97,1.91-6.34,2.87-10.1,2.87-2.71,0-5.17-.46-7.39-1.38-2.22-.92-4.12-2.2-5.69-3.84-1.57-1.64-2.79-3.61-3.66-5.9-.87-2.29-1.3-4.84-1.3-7.64s.43-5.42,1.3-7.71c.87-2.29,2.1-4.26,3.69-5.9,1.59-1.64,3.5-2.91,5.72-3.8,2.22-.89,4.68-1.34,7.39-1.34Z"/>
    <path class="cls-1" d="M309.18,56.24c2.75,0,5.25.47,7.5,1.41,2.25.94,4.17,2.25,5.76,3.91,1.59,1.67,2.84,3.65,3.73,5.94.89,2.29,1.34,4.79,1.34,7.5s-.45,5.2-1.34,7.5c-.89,2.29-2.14,4.27-3.73,5.94-1.59,1.67-3.51,2.96-5.76,3.88-2.25.92-4.75,1.38-7.5,1.38s-5.25-.46-7.5-1.38c-2.25-.92-4.17-2.21-5.76-3.88s-2.84-3.65-3.73-5.94c-.89-2.29-1.34-4.79-1.34-7.5s.45-5.2,1.34-7.5c.89-2.29,2.14-4.27,3.73-5.94s3.51-2.97,5.76-3.91c2.25-.94,4.75-1.41,7.5-1.41ZM309.18,86.74c1.59,0,3.03-.29,4.31-.87,1.28-.58,2.39-1.4,3.33-2.46.94-1.06,1.67-2.31,2.17-3.75s.76-3.03.76-4.77-.25-3.31-.76-4.73-1.23-2.65-2.17-3.68c-.94-1.03-2.05-1.84-3.33-2.42-1.28-.58-2.72-.87-4.31-.87s-3.04.29-4.35.87c-1.3.58-2.42,1.38-3.33,2.42-.92,1.04-1.63,2.26-2.14,3.68-.51,1.42-.76,3-.76,4.73s.25,3.32.76,4.77c.51,1.44,1.22,2.7,2.14,3.75.92,1.06,2.03,1.88,3.33,2.46,1.3.58,2.75.87,4.35.87Z"/>
    <path class="cls-1" d="M351.37,93.76c-2.76,0-5.24-.53-7.44-1.58-2.2-1.05-3.89-2.49-5.05-4.3v21.16h-7.39v-51.79h6.81l.36,5c1.06-1.83,2.69-3.3,4.86-4.38,2.18-1.09,4.72-1.63,7.62-1.63,2.61,0,4.99.43,7.12,1.3s3.96,2.13,5.48,3.77c1.52,1.64,2.7,3.63,3.52,5.98.82,2.34,1.23,4.96,1.23,7.86s-.42,5.49-1.27,7.79c-.85,2.29-2.03,4.24-3.56,5.83-1.53,1.59-3.34,2.83-5.45,3.69-2.11.87-4.39,1.3-6.86,1.3ZM360.75,74.97c0-3.63-.98-6.5-2.93-8.61s-4.55-3.16-7.79-3.16-5.96,1.08-7.9,3.23c-1.93,2.16-2.9,5-2.9,8.54s.99,6.52,2.97,8.65c1.98,2.13,4.59,3.2,7.82,3.2s5.83-1.06,7.79-3.2c1.96-2.13,2.93-5.01,2.93-8.65Z"/>
  </g>
  <path class="cls-1" d="M58.96,93.04c-10.63,0-19.27-8.65-19.27-19.27s8.65-19.27,19.27-19.27,19.27,8.65,19.27,19.27c0,6.38-3.15,12.34-8.43,15.94-3.2,2.18-6.95,3.34-10.84,3.34ZM58.96,61.49c-6.77,0-12.27,5.51-12.27,12.27s5.51,12.27,12.27,12.27c2.48,0,4.86-.73,6.9-2.12,3.36-2.29,5.37-6.09,5.37-10.15,0-6.77-5.51-12.27-12.27-12.27Z"/>
  <path class="cls-1" d="M106.43,93.04h-34.15v-7h34.15c6.77,0,12.27-5.51,12.27-12.27s-5.51-12.27-12.27-12.27h-3.5v-7h3.5c10.63,0,19.27,8.65,19.27,19.27s-8.65,19.27-19.27,19.27Z"/>
  <path class="cls-1" d="M78.23,93.04h-7v-35.41c0-10.63,8.65-19.27,19.27-19.27s19.27,8.65,19.27,19.27v3.5h-7v-3.5c0-6.77-5.51-12.27-12.27-12.27s-12.27,5.51-12.27,12.27v35.41Z"/>
</svg>