<svg width="171" height="41" viewBox="0 0 171 41" fill="none" xmlns="http://www.w3.org/2000/svg">
  <path d="M5.2669 6.48C3.9869 6.48 2.9869 5.44 2.9869 4.16C2.9869 2.84 3.9869 1.8 5.2669 1.8C6.5869 1.8 7.6269 2.84 7.6269 4.16C7.6269 5.44 6.5869 6.48 5.2669 6.48ZM3.4269 28.24V13.76C3.4269 13.36 3.7869 13 4.1869 13H6.4669C6.8669 13 7.2269 13.36 7.2269 13.76V28.24C7.2269 28.64 6.8669 29 6.4669 29H4.1869C3.7869 29 3.4269 28.64 3.4269 28.24ZM11.9113 28.24V13.76C11.9113 13.36 12.2713 13 12.6713 13H13.8313C14.1513 13 14.3913 13.2 14.4713 13.48L14.9513 14.84C15.2313 14.52 17.3513 12.6 20.5513 12.6C25.4313 12.6 27.2313 16.04 27.2313 20.2V28.24C27.2313 28.64 26.8713 29 26.4713 29H24.1913C23.7513 29 23.4313 28.64 23.4313 28.24V20.04C23.4313 17.48 22.1913 16.08 20.1113 16.08C17.5913 16.08 15.8713 17.92 15.6713 18.48V28.24C15.6713 28.76 15.4313 29 14.7513 29H12.6713C12.2713 29 11.9113 28.64 11.9113 28.24ZM31.0038 27.76C30.7638 27.6 30.6038 27.24 30.7638 26.92L31.6038 25.36C31.7638 25.04 32.2038 24.92 32.6038 25.16C32.6038 25.16 34.3638 26.2 36.3238 26.2C37.5238 26.2 38.2838 25.72 38.2838 24.84C38.2838 23.76 37.4038 23.24 35.2038 22.24C32.7238 21.16 30.6438 19.64 30.6438 17C30.6438 15 32.2838 12.6 36.1238 12.6C38.3638 12.6 40.0438 13.32 40.8438 13.84C41.2038 14.08 41.4038 14.6 41.1638 15L40.4438 16.36C40.2438 16.72 39.7238 16.84 39.4038 16.68C39.4038 16.68 37.6438 15.84 36.1238 15.84C34.7638 15.84 34.3238 16.44 34.3238 17.04C34.3238 18.08 35.3238 18.52 36.8838 19.2C39.8038 20.48 42.2038 21.72 42.2038 24.72C42.2038 27.2 39.8438 29.4 36.2838 29.4C33.6038 29.4 31.8438 28.44 31.0038 27.76ZM47.3997 6.48C46.1197 6.48 45.1197 5.44 45.1197 4.16C45.1197 2.84 46.1197 1.8 47.3997 1.8C48.7197 1.8 49.7597 2.84 49.7597 4.16C49.7597 5.44 48.7197 6.48 47.3997 6.48ZM45.5597 28.24V13.76C45.5597 13.36 45.9197 13 46.3197 13H48.5997C48.9997 13 49.3597 13.36 49.3597 13.76V28.24C49.3597 28.64 48.9997 29 48.5997 29H46.3197C45.9197 29 45.5597 28.64 45.5597 28.24ZM55.0841 24.64V16.32H53.4041C52.9641 16.32 52.6441 15.96 52.6441 15.56V13.76C52.6441 13.32 52.9641 13 53.4041 13H55.0841V8.56C55.0841 8.16 55.4441 7.8 55.8441 7.8L58.1241 7.76C58.5241 7.76 58.8441 8.12 58.8441 8.52V13H62.9241C63.3641 13 63.6841 13.32 63.6841 13.76V15.56C63.6841 15.96 63.3641 16.32 62.9241 16.32H58.8441V24.24C58.8441 25.6 59.3641 25.84 60.1241 25.84C60.9641 25.84 62.0841 25.36 62.5641 25.12C63.0841 24.88 63.3241 25.12 63.4841 25.48L64.2041 27.24C64.4041 27.68 64.2441 28 63.8441 28.2C63.4441 28.44 61.0841 29.4 59.1641 29.4C56.0041 29.4 55.0841 27.48 55.0841 24.64ZM66.2122 21C66.2122 16.48 69.4122 12.6 74.2122 12.6C78.3722 12.6 81.5722 15.72 81.5722 20C81.5722 20.28 81.5322 20.8 81.4922 21.08C81.4522 21.48 81.1322 21.76 80.7722 21.76H69.8922C70.0122 23.92 71.8922 26.04 74.4922 26.04C75.9322 26.04 77.2522 25.4 78.0522 24.88C78.5322 24.6 78.8122 24.44 79.1322 24.84L80.2522 26.36C80.5322 26.68 80.6522 27 80.1722 27.4C79.0122 28.4 76.9322 29.4 74.2522 29.4C69.4122 29.4 66.2122 25.6 66.2122 21ZM70.0922 19.24H77.8522C77.7322 17.32 76.1322 15.68 74.1722 15.68C72.0122 15.68 70.3322 17.24 70.0922 19.24Z" fill="#141414"/>
  <path d="M87.7169 26.522C87.7169 24.884 89.0189 23.582 90.6149 23.582C92.2529 23.582 93.5549 24.884 93.5549 26.522C93.5549 28.118 92.2529 29.42 90.6149 29.42C89.0189 29.42 87.7169 28.118 87.7169 26.522Z" fill="#CC435B"/>
  <path d="M98.2269 21.04C98.2269 16.32 102.187 12.6 106.627 12.6C109.067 12.6 110.947 13.6 112.427 15.44C112.707 15.8 112.627 16.28 112.267 16.56L110.947 17.76C110.467 18.2 110.187 17.88 109.867 17.6C109.147 16.8 107.987 16.08 106.667 16.08C104.067 16.08 102.027 18.28 102.027 21C102.027 23.76 104.027 25.96 106.627 25.96C108.667 25.96 109.507 24.92 110.347 24.12C110.707 23.76 111.067 23.76 111.427 24.04L112.507 24.92C112.907 25.24 113.067 25.64 112.787 26.04C111.507 28.08 109.347 29.4 106.587 29.4C102.107 29.4 98.2269 25.84 98.2269 21.04ZM115.071 20.96C115.071 16.44 118.671 12.6 123.151 12.6C127.631 12.6 131.231 16.44 131.231 20.96C131.231 25.56 127.631 29.4 123.151 29.4C118.671 29.4 115.071 25.56 115.071 20.96ZM118.631 20.96C118.631 23.72 120.631 25.96 123.151 25.96C125.671 25.96 127.671 23.72 127.671 20.96C127.671 18.28 125.671 16.08 123.151 16.08C120.631 16.08 118.631 18.28 118.631 20.96ZM133.516 20.96C133.516 16.44 137.116 12.6 141.596 12.6C146.076 12.6 149.676 16.44 149.676 20.96C149.676 25.56 146.076 29.4 141.596 29.4C137.116 29.4 133.516 25.56 133.516 20.96ZM137.076 20.96C137.076 23.72 139.076 25.96 141.596 25.96C144.116 25.96 146.116 23.72 146.116 20.96C146.116 18.28 144.116 16.08 141.596 16.08C139.076 16.08 137.076 18.28 137.076 20.96ZM157.001 28.32V40.24C157.001 40.68 156.721 41 156.161 41H153.921C153.521 41 153.161 40.64 153.161 40.24V13.76C153.161 13.36 153.521 13 153.921 13H155.121C155.441 13 155.641 13.16 155.801 13.52L156.201 14.56C156.481 14.28 158.121 12.6 161.081 12.6C165.481 12.6 168.721 16.44 168.721 21.04C168.721 25.72 165.281 29.4 160.921 29.4C158.841 29.4 157.281 28.48 157.001 28.32ZM156.921 24.8C156.921 24.8 158.321 25.96 160.441 25.96C163.081 25.96 165.001 23.76 165.001 21.04C165.001 18.36 163.321 16.08 160.601 16.08C158.281 16.08 157.081 17.92 156.921 18.4V24.8Z" fill="#141414"/>
</svg>